<mxfile host="app.diagrams.net" modified="2024-04-15T10:37:59.987Z" agent="Mozilla/5.0 (X11; Linux x86_64) AppleWebKit/537.36 (KHTML, like Gecko) Chrome/123.0.0.0 Safari/537.36" etag="aemCAbD2_FWA1pQK2iL0" version="24.2.5" type="device">
  <diagram name="Page-1" id="4wqWPoDEpwIA6AYoPbV9">
    <mxGraphModel dx="2390" dy="1797" grid="0" gridSize="10" guides="1" tooltips="1" connect="1" arrows="1" fold="1" page="0" pageScale="1" pageWidth="827" pageHeight="1169" math="0" shadow="0">
      <root>
        <mxCell id="0" />
        <mxCell id="1" parent="0" />
        <mxCell id="bA_wD9CgmNWGQYaJStTC-5" value="ProductCategory" style="shape=table;startSize=30;container=1;collapsible=1;childLayout=tableLayout;fixedRows=1;rowLines=0;fontStyle=1;align=center;resizeLast=1;html=1;" vertex="1" parent="1">
          <mxGeometry x="-225" y="-124" width="180" height="90" as="geometry" />
        </mxCell>
        <mxCell id="bA_wD9CgmNWGQYaJStTC-6" value="" style="shape=tableRow;horizontal=0;startSize=0;swimlaneHead=0;swimlaneBody=0;fillColor=none;collapsible=0;dropTarget=0;points=[[0,0.5],[1,0.5]];portConstraint=eastwest;top=0;left=0;right=0;bottom=1;" vertex="1" parent="bA_wD9CgmNWGQYaJStTC-5">
          <mxGeometry y="30" width="180" height="30" as="geometry" />
        </mxCell>
        <mxCell id="bA_wD9CgmNWGQYaJStTC-7" value="PK" style="shape=partialRectangle;connectable=0;fillColor=none;top=0;left=0;bottom=0;right=0;fontStyle=1;overflow=hidden;whiteSpace=wrap;html=1;" vertex="1" parent="bA_wD9CgmNWGQYaJStTC-6">
          <mxGeometry width="30" height="30" as="geometry">
            <mxRectangle width="30" height="30" as="alternateBounds" />
          </mxGeometry>
        </mxCell>
        <mxCell id="bA_wD9CgmNWGQYaJStTC-8" value="Category" style="shape=partialRectangle;connectable=0;fillColor=none;top=0;left=0;bottom=0;right=0;align=left;spacingLeft=6;fontStyle=5;overflow=hidden;whiteSpace=wrap;html=1;" vertex="1" parent="bA_wD9CgmNWGQYaJStTC-6">
          <mxGeometry x="30" width="150" height="30" as="geometry">
            <mxRectangle width="150" height="30" as="alternateBounds" />
          </mxGeometry>
        </mxCell>
        <mxCell id="bA_wD9CgmNWGQYaJStTC-9" value="" style="shape=tableRow;horizontal=0;startSize=0;swimlaneHead=0;swimlaneBody=0;fillColor=none;collapsible=0;dropTarget=0;points=[[0,0.5],[1,0.5]];portConstraint=eastwest;top=0;left=0;right=0;bottom=0;" vertex="1" parent="bA_wD9CgmNWGQYaJStTC-5">
          <mxGeometry y="60" width="180" height="30" as="geometry" />
        </mxCell>
        <mxCell id="bA_wD9CgmNWGQYaJStTC-10" value="" style="shape=partialRectangle;connectable=0;fillColor=none;top=0;left=0;bottom=0;right=0;editable=1;overflow=hidden;whiteSpace=wrap;html=1;" vertex="1" parent="bA_wD9CgmNWGQYaJStTC-9">
          <mxGeometry width="30" height="30" as="geometry">
            <mxRectangle width="30" height="30" as="alternateBounds" />
          </mxGeometry>
        </mxCell>
        <mxCell id="bA_wD9CgmNWGQYaJStTC-11" value="Parent" style="shape=partialRectangle;connectable=0;fillColor=none;top=0;left=0;bottom=0;right=0;align=left;spacingLeft=6;overflow=hidden;whiteSpace=wrap;html=1;" vertex="1" parent="bA_wD9CgmNWGQYaJStTC-9">
          <mxGeometry x="30" width="150" height="30" as="geometry">
            <mxRectangle width="150" height="30" as="alternateBounds" />
          </mxGeometry>
        </mxCell>
        <mxCell id="bA_wD9CgmNWGQYaJStTC-251" value="" style="curved=1;endArrow=classic;html=1;rounded=0;fontSize=12;startSize=8;endSize=8;entryX=1;entryY=0;entryDx=0;entryDy=0;exitX=1;exitY=0.5;exitDx=0;exitDy=0;" edge="1" parent="bA_wD9CgmNWGQYaJStTC-5" source="bA_wD9CgmNWGQYaJStTC-6" target="bA_wD9CgmNWGQYaJStTC-5">
          <mxGeometry width="50" height="50" relative="1" as="geometry">
            <mxPoint x="226" y="37" as="sourcePoint" />
            <mxPoint x="276" y="-13" as="targetPoint" />
            <Array as="points">
              <mxPoint x="276" y="37" />
              <mxPoint x="226" y="-13" />
            </Array>
          </mxGeometry>
        </mxCell>
        <mxCell id="bA_wD9CgmNWGQYaJStTC-32" style="edgeStyle=none;curved=1;rounded=0;orthogonalLoop=1;jettySize=auto;html=1;entryX=0.5;entryY=0;entryDx=0;entryDy=0;fontSize=12;startSize=8;endSize=8;exitX=0.5;exitY=1;exitDx=0;exitDy=0;" edge="1" parent="1" source="bA_wD9CgmNWGQYaJStTC-171" target="bA_wD9CgmNWGQYaJStTC-5">
          <mxGeometry relative="1" as="geometry">
            <mxPoint x="-144.1417550994222" y="-158.44496500503647" as="sourcePoint" />
          </mxGeometry>
        </mxCell>
        <mxCell id="bA_wD9CgmNWGQYaJStTC-33" value="Eatable" style="shape=table;startSize=30;container=1;collapsible=1;childLayout=tableLayout;fixedRows=1;rowLines=0;fontStyle=1;align=center;resizeLast=1;html=1;" vertex="1" parent="1">
          <mxGeometry x="-379" y="285" width="180" height="150" as="geometry" />
        </mxCell>
        <mxCell id="bA_wD9CgmNWGQYaJStTC-37" value="" style="shape=tableRow;horizontal=0;startSize=0;swimlaneHead=0;swimlaneBody=0;fillColor=none;collapsible=0;dropTarget=0;points=[[0,0.5],[1,0.5]];portConstraint=eastwest;top=0;left=0;right=0;bottom=0;" vertex="1" parent="bA_wD9CgmNWGQYaJStTC-33">
          <mxGeometry y="30" width="180" height="30" as="geometry" />
        </mxCell>
        <mxCell id="bA_wD9CgmNWGQYaJStTC-38" value="" style="shape=partialRectangle;connectable=0;fillColor=none;top=0;left=0;bottom=0;right=0;editable=1;overflow=hidden;whiteSpace=wrap;html=1;" vertex="1" parent="bA_wD9CgmNWGQYaJStTC-37">
          <mxGeometry width="30" height="30" as="geometry">
            <mxRectangle width="30" height="30" as="alternateBounds" />
          </mxGeometry>
        </mxCell>
        <mxCell id="bA_wD9CgmNWGQYaJStTC-39" value="Kcal" style="shape=partialRectangle;connectable=0;fillColor=none;top=0;left=0;bottom=0;right=0;align=left;spacingLeft=6;overflow=hidden;whiteSpace=wrap;html=1;" vertex="1" parent="bA_wD9CgmNWGQYaJStTC-37">
          <mxGeometry x="30" width="150" height="30" as="geometry">
            <mxRectangle width="150" height="30" as="alternateBounds" />
          </mxGeometry>
        </mxCell>
        <mxCell id="bA_wD9CgmNWGQYaJStTC-40" value="" style="shape=tableRow;horizontal=0;startSize=0;swimlaneHead=0;swimlaneBody=0;fillColor=none;collapsible=0;dropTarget=0;points=[[0,0.5],[1,0.5]];portConstraint=eastwest;top=0;left=0;right=0;bottom=0;" vertex="1" parent="bA_wD9CgmNWGQYaJStTC-33">
          <mxGeometry y="60" width="180" height="30" as="geometry" />
        </mxCell>
        <mxCell id="bA_wD9CgmNWGQYaJStTC-41" value="" style="shape=partialRectangle;connectable=0;fillColor=none;top=0;left=0;bottom=0;right=0;editable=1;overflow=hidden;whiteSpace=wrap;html=1;" vertex="1" parent="bA_wD9CgmNWGQYaJStTC-40">
          <mxGeometry width="30" height="30" as="geometry">
            <mxRectangle width="30" height="30" as="alternateBounds" />
          </mxGeometry>
        </mxCell>
        <mxCell id="bA_wD9CgmNWGQYaJStTC-42" value="Carbohydrates" style="shape=partialRectangle;connectable=0;fillColor=none;top=0;left=0;bottom=0;right=0;align=left;spacingLeft=6;overflow=hidden;whiteSpace=wrap;html=1;" vertex="1" parent="bA_wD9CgmNWGQYaJStTC-40">
          <mxGeometry x="30" width="150" height="30" as="geometry">
            <mxRectangle width="150" height="30" as="alternateBounds" />
          </mxGeometry>
        </mxCell>
        <mxCell id="bA_wD9CgmNWGQYaJStTC-43" value="" style="shape=tableRow;horizontal=0;startSize=0;swimlaneHead=0;swimlaneBody=0;fillColor=none;collapsible=0;dropTarget=0;points=[[0,0.5],[1,0.5]];portConstraint=eastwest;top=0;left=0;right=0;bottom=0;" vertex="1" parent="bA_wD9CgmNWGQYaJStTC-33">
          <mxGeometry y="90" width="180" height="30" as="geometry" />
        </mxCell>
        <mxCell id="bA_wD9CgmNWGQYaJStTC-44" value="" style="shape=partialRectangle;connectable=0;fillColor=none;top=0;left=0;bottom=0;right=0;editable=1;overflow=hidden;whiteSpace=wrap;html=1;" vertex="1" parent="bA_wD9CgmNWGQYaJStTC-43">
          <mxGeometry width="30" height="30" as="geometry">
            <mxRectangle width="30" height="30" as="alternateBounds" />
          </mxGeometry>
        </mxCell>
        <mxCell id="bA_wD9CgmNWGQYaJStTC-45" value="Fats" style="shape=partialRectangle;connectable=0;fillColor=none;top=0;left=0;bottom=0;right=0;align=left;spacingLeft=6;overflow=hidden;whiteSpace=wrap;html=1;" vertex="1" parent="bA_wD9CgmNWGQYaJStTC-43">
          <mxGeometry x="30" width="150" height="30" as="geometry">
            <mxRectangle width="150" height="30" as="alternateBounds" />
          </mxGeometry>
        </mxCell>
        <mxCell id="bA_wD9CgmNWGQYaJStTC-101" value="" style="shape=tableRow;horizontal=0;startSize=0;swimlaneHead=0;swimlaneBody=0;fillColor=none;collapsible=0;dropTarget=0;points=[[0,0.5],[1,0.5]];portConstraint=eastwest;top=0;left=0;right=0;bottom=0;" vertex="1" parent="bA_wD9CgmNWGQYaJStTC-33">
          <mxGeometry y="120" width="180" height="30" as="geometry" />
        </mxCell>
        <mxCell id="bA_wD9CgmNWGQYaJStTC-102" value="" style="shape=partialRectangle;connectable=0;fillColor=none;top=0;left=0;bottom=0;right=0;editable=1;overflow=hidden;" vertex="1" parent="bA_wD9CgmNWGQYaJStTC-101">
          <mxGeometry width="30" height="30" as="geometry">
            <mxRectangle width="30" height="30" as="alternateBounds" />
          </mxGeometry>
        </mxCell>
        <mxCell id="bA_wD9CgmNWGQYaJStTC-103" value="Proteins" style="shape=partialRectangle;connectable=0;fillColor=none;top=0;left=0;bottom=0;right=0;align=left;spacingLeft=6;overflow=hidden;" vertex="1" parent="bA_wD9CgmNWGQYaJStTC-101">
          <mxGeometry x="30" width="150" height="30" as="geometry">
            <mxRectangle width="150" height="30" as="alternateBounds" />
          </mxGeometry>
        </mxCell>
        <mxCell id="bA_wD9CgmNWGQYaJStTC-46" value="NonFood" style="shape=table;startSize=30;container=1;collapsible=1;childLayout=tableLayout;fixedRows=1;rowLines=0;fontStyle=1;align=center;resizeLast=1;html=1;" vertex="1" parent="1">
          <mxGeometry x="-82" y="189" width="180" height="60" as="geometry" />
        </mxCell>
        <mxCell id="bA_wD9CgmNWGQYaJStTC-50" value="" style="shape=tableRow;horizontal=0;startSize=0;swimlaneHead=0;swimlaneBody=0;fillColor=none;collapsible=0;dropTarget=0;points=[[0,0.5],[1,0.5]];portConstraint=eastwest;top=0;left=0;right=0;bottom=0;" vertex="1" parent="bA_wD9CgmNWGQYaJStTC-46">
          <mxGeometry y="30" width="180" height="30" as="geometry" />
        </mxCell>
        <mxCell id="bA_wD9CgmNWGQYaJStTC-51" value="" style="shape=partialRectangle;connectable=0;fillColor=none;top=0;left=0;bottom=0;right=0;editable=1;overflow=hidden;whiteSpace=wrap;html=1;" vertex="1" parent="bA_wD9CgmNWGQYaJStTC-50">
          <mxGeometry width="30" height="30" as="geometry">
            <mxRectangle width="30" height="30" as="alternateBounds" />
          </mxGeometry>
        </mxCell>
        <mxCell id="bA_wD9CgmNWGQYaJStTC-52" value="tmp" style="shape=partialRectangle;connectable=0;fillColor=none;top=0;left=0;bottom=0;right=0;align=left;spacingLeft=6;overflow=hidden;whiteSpace=wrap;html=1;" vertex="1" parent="bA_wD9CgmNWGQYaJStTC-50">
          <mxGeometry x="30" width="150" height="30" as="geometry">
            <mxRectangle width="150" height="30" as="alternateBounds" />
          </mxGeometry>
        </mxCell>
        <mxCell id="bA_wD9CgmNWGQYaJStTC-62" value="Product" style="shape=table;startSize=30;container=1;collapsible=1;childLayout=tableLayout;fixedRows=1;rowLines=0;fontStyle=1;align=center;resizeLast=1;html=1;" vertex="1" parent="1">
          <mxGeometry x="-228" y="34" width="180" height="90" as="geometry" />
        </mxCell>
        <mxCell id="bA_wD9CgmNWGQYaJStTC-59" value="" style="shape=tableRow;horizontal=0;startSize=0;swimlaneHead=0;swimlaneBody=0;fillColor=none;collapsible=0;dropTarget=0;points=[[0,0.5],[1,0.5]];portConstraint=eastwest;top=0;left=0;right=0;bottom=1;" vertex="1" parent="bA_wD9CgmNWGQYaJStTC-62">
          <mxGeometry y="30" width="180" height="30" as="geometry" />
        </mxCell>
        <mxCell id="bA_wD9CgmNWGQYaJStTC-60" value="PK" style="shape=partialRectangle;connectable=0;fillColor=none;top=0;left=0;bottom=0;right=0;fontStyle=1;overflow=hidden;whiteSpace=wrap;html=1;" vertex="1" parent="bA_wD9CgmNWGQYaJStTC-59">
          <mxGeometry width="30" height="30" as="geometry">
            <mxRectangle width="30" height="30" as="alternateBounds" />
          </mxGeometry>
        </mxCell>
        <mxCell id="bA_wD9CgmNWGQYaJStTC-61" value="Name" style="shape=partialRectangle;connectable=0;fillColor=none;top=0;left=0;bottom=0;right=0;align=left;spacingLeft=6;fontStyle=5;overflow=hidden;whiteSpace=wrap;html=1;" vertex="1" parent="bA_wD9CgmNWGQYaJStTC-59">
          <mxGeometry x="30" width="150" height="30" as="geometry">
            <mxRectangle width="150" height="30" as="alternateBounds" />
          </mxGeometry>
        </mxCell>
        <mxCell id="bA_wD9CgmNWGQYaJStTC-217" value="" style="shape=tableRow;horizontal=0;startSize=0;swimlaneHead=0;swimlaneBody=0;fillColor=none;collapsible=0;dropTarget=0;points=[[0,0.5],[1,0.5]];portConstraint=eastwest;top=0;left=0;right=0;bottom=0;" vertex="1" parent="bA_wD9CgmNWGQYaJStTC-62">
          <mxGeometry y="60" width="180" height="30" as="geometry" />
        </mxCell>
        <mxCell id="bA_wD9CgmNWGQYaJStTC-218" value="" style="shape=partialRectangle;connectable=0;fillColor=none;top=0;left=0;bottom=0;right=0;editable=1;overflow=hidden;" vertex="1" parent="bA_wD9CgmNWGQYaJStTC-217">
          <mxGeometry width="30" height="30" as="geometry">
            <mxRectangle width="30" height="30" as="alternateBounds" />
          </mxGeometry>
        </mxCell>
        <mxCell id="bA_wD9CgmNWGQYaJStTC-219" value="Category" style="shape=partialRectangle;connectable=0;fillColor=none;top=0;left=0;bottom=0;right=0;align=left;spacingLeft=6;overflow=hidden;" vertex="1" parent="bA_wD9CgmNWGQYaJStTC-217">
          <mxGeometry x="30" width="150" height="30" as="geometry">
            <mxRectangle width="150" height="30" as="alternateBounds" />
          </mxGeometry>
        </mxCell>
        <mxCell id="bA_wD9CgmNWGQYaJStTC-82" value="" style="curved=1;endArrow=classic;html=1;rounded=0;fontSize=12;startSize=8;endSize=8;exitX=1;exitY=0.5;exitDx=0;exitDy=0;entryX=0.994;entryY=0.111;entryDx=0;entryDy=0;entryPerimeter=0;" edge="1" parent="1" target="bA_wD9CgmNWGQYaJStTC-5">
          <mxGeometry width="50" height="50" relative="1" as="geometry">
            <mxPoint x="-48" y="108.99999999999977" as="sourcePoint" />
            <mxPoint x="33" y="51" as="targetPoint" />
            <Array as="points">
              <mxPoint x="33" y="101" />
              <mxPoint x="88" y="-62" />
              <mxPoint x="35" y="-91" />
              <mxPoint x="9" y="-91" />
            </Array>
          </mxGeometry>
        </mxCell>
        <mxCell id="bA_wD9CgmNWGQYaJStTC-83" value="" style="shape=flexArrow;endArrow=classic;html=1;rounded=0;fontSize=12;startSize=8;endSize=8;curved=1;entryX=0.467;entryY=0;entryDx=0;entryDy=0;entryPerimeter=0;exitX=0.511;exitY=1.1;exitDx=0;exitDy=0;exitPerimeter=0;" edge="1" parent="1" target="bA_wD9CgmNWGQYaJStTC-33">
          <mxGeometry width="50" height="50" relative="1" as="geometry">
            <mxPoint x="-136.0200000000002" y="126.99999999999977" as="sourcePoint" />
            <mxPoint x="-140" y="279" as="targetPoint" />
          </mxGeometry>
        </mxCell>
        <mxCell id="bA_wD9CgmNWGQYaJStTC-84" value="" style="shape=flexArrow;endArrow=classic;html=1;rounded=0;fontSize=12;startSize=8;endSize=8;curved=1;entryX=0.5;entryY=0;entryDx=0;entryDy=0;" edge="1" parent="1" target="bA_wD9CgmNWGQYaJStTC-46">
          <mxGeometry width="50" height="50" relative="1" as="geometry">
            <mxPoint x="-139" y="131" as="sourcePoint" />
            <mxPoint x="-69" y="182" as="targetPoint" />
          </mxGeometry>
        </mxCell>
        <mxCell id="bA_wD9CgmNWGQYaJStTC-104" value="Owned" style="shape=table;startSize=30;container=1;collapsible=1;childLayout=tableLayout;fixedRows=1;rowLines=0;fontStyle=1;align=center;resizeLast=1;html=1;" vertex="1" parent="1">
          <mxGeometry x="-690" y="-58" width="180" height="120" as="geometry" />
        </mxCell>
        <mxCell id="bA_wD9CgmNWGQYaJStTC-105" value="" style="shape=tableRow;horizontal=0;startSize=0;swimlaneHead=0;swimlaneBody=0;fillColor=none;collapsible=0;dropTarget=0;points=[[0,0.5],[1,0.5]];portConstraint=eastwest;top=0;left=0;right=0;bottom=1;" vertex="1" parent="bA_wD9CgmNWGQYaJStTC-104">
          <mxGeometry y="30" width="180" height="30" as="geometry" />
        </mxCell>
        <mxCell id="bA_wD9CgmNWGQYaJStTC-106" value="FK" style="shape=partialRectangle;connectable=0;fillColor=none;top=0;left=0;bottom=0;right=0;fontStyle=1;overflow=hidden;whiteSpace=wrap;html=1;" vertex="1" parent="bA_wD9CgmNWGQYaJStTC-105">
          <mxGeometry width="30" height="30" as="geometry">
            <mxRectangle width="30" height="30" as="alternateBounds" />
          </mxGeometry>
        </mxCell>
        <mxCell id="bA_wD9CgmNWGQYaJStTC-107" value="Name" style="shape=partialRectangle;connectable=0;fillColor=none;top=0;left=0;bottom=0;right=0;align=left;spacingLeft=6;fontStyle=5;overflow=hidden;whiteSpace=wrap;html=1;" vertex="1" parent="bA_wD9CgmNWGQYaJStTC-105">
          <mxGeometry x="30" width="150" height="30" as="geometry">
            <mxRectangle width="150" height="30" as="alternateBounds" />
          </mxGeometry>
        </mxCell>
        <mxCell id="bA_wD9CgmNWGQYaJStTC-133" value="" style="shape=tableRow;horizontal=0;startSize=0;swimlaneHead=0;swimlaneBody=0;fillColor=none;collapsible=0;dropTarget=0;points=[[0,0.5],[1,0.5]];portConstraint=eastwest;top=0;left=0;right=0;bottom=1;" vertex="1" parent="bA_wD9CgmNWGQYaJStTC-104">
          <mxGeometry y="60" width="180" height="30" as="geometry" />
        </mxCell>
        <mxCell id="bA_wD9CgmNWGQYaJStTC-134" value="FK" style="shape=partialRectangle;connectable=0;fillColor=none;top=0;left=0;bottom=0;right=0;fontStyle=1;overflow=hidden;whiteSpace=wrap;html=1;" vertex="1" parent="bA_wD9CgmNWGQYaJStTC-133">
          <mxGeometry width="30" height="30" as="geometry">
            <mxRectangle width="30" height="30" as="alternateBounds" />
          </mxGeometry>
        </mxCell>
        <mxCell id="bA_wD9CgmNWGQYaJStTC-135" value="Category" style="shape=partialRectangle;connectable=0;fillColor=none;top=0;left=0;bottom=0;right=0;align=left;spacingLeft=6;fontStyle=5;overflow=hidden;whiteSpace=wrap;html=1;" vertex="1" parent="bA_wD9CgmNWGQYaJStTC-133">
          <mxGeometry x="30" width="150" height="30" as="geometry">
            <mxRectangle width="150" height="30" as="alternateBounds" />
          </mxGeometry>
        </mxCell>
        <mxCell id="bA_wD9CgmNWGQYaJStTC-108" value="" style="shape=tableRow;horizontal=0;startSize=0;swimlaneHead=0;swimlaneBody=0;fillColor=none;collapsible=0;dropTarget=0;points=[[0,0.5],[1,0.5]];portConstraint=eastwest;top=0;left=0;right=0;bottom=0;" vertex="1" parent="bA_wD9CgmNWGQYaJStTC-104">
          <mxGeometry y="90" width="180" height="30" as="geometry" />
        </mxCell>
        <mxCell id="bA_wD9CgmNWGQYaJStTC-109" value="" style="shape=partialRectangle;connectable=0;fillColor=none;top=0;left=0;bottom=0;right=0;editable=1;overflow=hidden;whiteSpace=wrap;html=1;" vertex="1" parent="bA_wD9CgmNWGQYaJStTC-108">
          <mxGeometry width="30" height="30" as="geometry">
            <mxRectangle width="30" height="30" as="alternateBounds" />
          </mxGeometry>
        </mxCell>
        <mxCell id="bA_wD9CgmNWGQYaJStTC-110" value="quantity" style="shape=partialRectangle;connectable=0;fillColor=none;top=0;left=0;bottom=0;right=0;align=left;spacingLeft=6;overflow=hidden;whiteSpace=wrap;html=1;" vertex="1" parent="bA_wD9CgmNWGQYaJStTC-108">
          <mxGeometry x="30" width="150" height="30" as="geometry">
            <mxRectangle width="150" height="30" as="alternateBounds" />
          </mxGeometry>
        </mxCell>
        <mxCell id="bA_wD9CgmNWGQYaJStTC-117" value="List" style="shape=table;startSize=30;container=1;collapsible=1;childLayout=tableLayout;fixedRows=1;rowLines=0;fontStyle=1;align=center;resizeLast=1;html=1;" vertex="1" parent="1">
          <mxGeometry x="-690" y="207" width="180" height="120" as="geometry" />
        </mxCell>
        <mxCell id="bA_wD9CgmNWGQYaJStTC-118" value="" style="shape=tableRow;horizontal=0;startSize=0;swimlaneHead=0;swimlaneBody=0;fillColor=none;collapsible=0;dropTarget=0;points=[[0,0.5],[1,0.5]];portConstraint=eastwest;top=0;left=0;right=0;bottom=1;" vertex="1" parent="bA_wD9CgmNWGQYaJStTC-117">
          <mxGeometry y="30" width="180" height="30" as="geometry" />
        </mxCell>
        <mxCell id="bA_wD9CgmNWGQYaJStTC-119" value="FK" style="shape=partialRectangle;connectable=0;fillColor=none;top=0;left=0;bottom=0;right=0;fontStyle=1;overflow=hidden;whiteSpace=wrap;html=1;" vertex="1" parent="bA_wD9CgmNWGQYaJStTC-118">
          <mxGeometry width="30" height="30" as="geometry">
            <mxRectangle width="30" height="30" as="alternateBounds" />
          </mxGeometry>
        </mxCell>
        <mxCell id="bA_wD9CgmNWGQYaJStTC-120" value="Name" style="shape=partialRectangle;connectable=0;fillColor=none;top=0;left=0;bottom=0;right=0;align=left;spacingLeft=6;fontStyle=5;overflow=hidden;whiteSpace=wrap;html=1;" vertex="1" parent="bA_wD9CgmNWGQYaJStTC-118">
          <mxGeometry x="30" width="150" height="30" as="geometry">
            <mxRectangle width="150" height="30" as="alternateBounds" />
          </mxGeometry>
        </mxCell>
        <mxCell id="bA_wD9CgmNWGQYaJStTC-146" value="" style="shape=tableRow;horizontal=0;startSize=0;swimlaneHead=0;swimlaneBody=0;fillColor=none;collapsible=0;dropTarget=0;points=[[0,0.5],[1,0.5]];portConstraint=eastwest;top=0;left=0;right=0;bottom=1;" vertex="1" parent="bA_wD9CgmNWGQYaJStTC-117">
          <mxGeometry y="60" width="180" height="30" as="geometry" />
        </mxCell>
        <mxCell id="bA_wD9CgmNWGQYaJStTC-147" value="FK" style="shape=partialRectangle;connectable=0;fillColor=none;top=0;left=0;bottom=0;right=0;fontStyle=1;overflow=hidden;whiteSpace=wrap;html=1;" vertex="1" parent="bA_wD9CgmNWGQYaJStTC-146">
          <mxGeometry width="30" height="30" as="geometry">
            <mxRectangle width="30" height="30" as="alternateBounds" />
          </mxGeometry>
        </mxCell>
        <mxCell id="bA_wD9CgmNWGQYaJStTC-148" value="Category" style="shape=partialRectangle;connectable=0;fillColor=none;top=0;left=0;bottom=0;right=0;align=left;spacingLeft=6;fontStyle=5;overflow=hidden;whiteSpace=wrap;html=1;" vertex="1" parent="bA_wD9CgmNWGQYaJStTC-146">
          <mxGeometry x="30" width="150" height="30" as="geometry">
            <mxRectangle width="150" height="30" as="alternateBounds" />
          </mxGeometry>
        </mxCell>
        <mxCell id="bA_wD9CgmNWGQYaJStTC-121" value="" style="shape=tableRow;horizontal=0;startSize=0;swimlaneHead=0;swimlaneBody=0;fillColor=none;collapsible=0;dropTarget=0;points=[[0,0.5],[1,0.5]];portConstraint=eastwest;top=0;left=0;right=0;bottom=0;" vertex="1" parent="bA_wD9CgmNWGQYaJStTC-117">
          <mxGeometry y="90" width="180" height="30" as="geometry" />
        </mxCell>
        <mxCell id="bA_wD9CgmNWGQYaJStTC-122" value="" style="shape=partialRectangle;connectable=0;fillColor=none;top=0;left=0;bottom=0;right=0;editable=1;overflow=hidden;whiteSpace=wrap;html=1;" vertex="1" parent="bA_wD9CgmNWGQYaJStTC-121">
          <mxGeometry width="30" height="30" as="geometry">
            <mxRectangle width="30" height="30" as="alternateBounds" />
          </mxGeometry>
        </mxCell>
        <mxCell id="bA_wD9CgmNWGQYaJStTC-123" value="quantity" style="shape=partialRectangle;connectable=0;fillColor=none;top=0;left=0;bottom=0;right=0;align=left;spacingLeft=6;overflow=hidden;whiteSpace=wrap;html=1;" vertex="1" parent="bA_wD9CgmNWGQYaJStTC-121">
          <mxGeometry x="30" width="150" height="30" as="geometry">
            <mxRectangle width="150" height="30" as="alternateBounds" />
          </mxGeometry>
        </mxCell>
        <mxCell id="bA_wD9CgmNWGQYaJStTC-137" value="" style="endArrow=classic;html=1;rounded=0;fontSize=12;startSize=8;endSize=8;curved=1;exitX=1;exitY=0.5;exitDx=0;exitDy=0;entryX=0;entryY=0.5;entryDx=0;entryDy=0;" edge="1" parent="1" source="bA_wD9CgmNWGQYaJStTC-133">
          <mxGeometry width="50" height="50" relative="1" as="geometry">
            <mxPoint x="-304" y="147" as="sourcePoint" />
            <mxPoint x="-228" y="108.99999999999977" as="targetPoint" />
          </mxGeometry>
        </mxCell>
        <mxCell id="bA_wD9CgmNWGQYaJStTC-138" value="" style="endArrow=classic;html=1;rounded=0;fontSize=12;startSize=8;endSize=8;curved=1;exitX=1;exitY=0.5;exitDx=0;exitDy=0;entryX=0;entryY=0.5;entryDx=0;entryDy=0;" edge="1" parent="1" source="bA_wD9CgmNWGQYaJStTC-105" target="bA_wD9CgmNWGQYaJStTC-59">
          <mxGeometry width="50" height="50" relative="1" as="geometry">
            <mxPoint x="-304" y="147" as="sourcePoint" />
            <mxPoint x="-254" y="97" as="targetPoint" />
          </mxGeometry>
        </mxCell>
        <mxCell id="bA_wD9CgmNWGQYaJStTC-139" value="" style="endArrow=classic;html=1;rounded=0;fontSize=12;startSize=8;endSize=8;curved=1;exitX=1;exitY=0.5;exitDx=0;exitDy=0;entryX=0;entryY=0.5;entryDx=0;entryDy=0;" edge="1" parent="1" source="bA_wD9CgmNWGQYaJStTC-118" target="bA_wD9CgmNWGQYaJStTC-59">
          <mxGeometry width="50" height="50" relative="1" as="geometry">
            <mxPoint x="-397" y="200" as="sourcePoint" />
            <mxPoint x="-254" y="97" as="targetPoint" />
          </mxGeometry>
        </mxCell>
        <mxCell id="bA_wD9CgmNWGQYaJStTC-149" value="" style="endArrow=classic;html=1;rounded=0;fontSize=12;startSize=8;endSize=8;curved=1;exitX=1;exitY=0.5;exitDx=0;exitDy=0;entryX=0;entryY=0.5;entryDx=0;entryDy=0;" edge="1" parent="1" source="bA_wD9CgmNWGQYaJStTC-146">
          <mxGeometry width="50" height="50" relative="1" as="geometry">
            <mxPoint x="-304" y="147" as="sourcePoint" />
            <mxPoint x="-228" y="108.99999999999977" as="targetPoint" />
          </mxGeometry>
        </mxCell>
        <mxCell id="bA_wD9CgmNWGQYaJStTC-150" value="Recipe" style="shape=table;startSize=30;container=1;collapsible=1;childLayout=tableLayout;fixedRows=1;rowLines=0;fontStyle=1;align=center;resizeLast=1;html=1;" vertex="1" parent="1">
          <mxGeometry x="-561" y="589" width="180" height="90" as="geometry" />
        </mxCell>
        <mxCell id="bA_wD9CgmNWGQYaJStTC-220" value="" style="shape=tableRow;horizontal=0;startSize=0;swimlaneHead=0;swimlaneBody=0;fillColor=none;collapsible=0;dropTarget=0;points=[[0,0.5],[1,0.5]];portConstraint=eastwest;top=0;left=0;right=0;bottom=0;" vertex="1" parent="bA_wD9CgmNWGQYaJStTC-150">
          <mxGeometry y="30" width="180" height="30" as="geometry" />
        </mxCell>
        <mxCell id="bA_wD9CgmNWGQYaJStTC-221" value="" style="shape=partialRectangle;connectable=0;fillColor=none;top=0;left=0;bottom=0;right=0;editable=1;overflow=hidden;" vertex="1" parent="bA_wD9CgmNWGQYaJStTC-220">
          <mxGeometry width="30" height="30" as="geometry">
            <mxRectangle width="30" height="30" as="alternateBounds" />
          </mxGeometry>
        </mxCell>
        <mxCell id="bA_wD9CgmNWGQYaJStTC-222" value="Parent" style="shape=partialRectangle;connectable=0;fillColor=none;top=0;left=0;bottom=0;right=0;align=left;spacingLeft=6;overflow=hidden;" vertex="1" parent="bA_wD9CgmNWGQYaJStTC-220">
          <mxGeometry x="30" width="150" height="30" as="geometry">
            <mxRectangle width="150" height="30" as="alternateBounds" />
          </mxGeometry>
        </mxCell>
        <mxCell id="bA_wD9CgmNWGQYaJStTC-154" value="" style="shape=tableRow;horizontal=0;startSize=0;swimlaneHead=0;swimlaneBody=0;fillColor=none;collapsible=0;dropTarget=0;points=[[0,0.5],[1,0.5]];portConstraint=eastwest;top=0;left=0;right=0;bottom=0;" vertex="1" parent="bA_wD9CgmNWGQYaJStTC-150">
          <mxGeometry y="60" width="180" height="30" as="geometry" />
        </mxCell>
        <mxCell id="bA_wD9CgmNWGQYaJStTC-155" value="" style="shape=partialRectangle;connectable=0;fillColor=none;top=0;left=0;bottom=0;right=0;editable=1;overflow=hidden;whiteSpace=wrap;html=1;" vertex="1" parent="bA_wD9CgmNWGQYaJStTC-154">
          <mxGeometry width="30" height="30" as="geometry">
            <mxRectangle width="30" height="30" as="alternateBounds" />
          </mxGeometry>
        </mxCell>
        <mxCell id="bA_wD9CgmNWGQYaJStTC-156" value="author" style="shape=partialRectangle;connectable=0;fillColor=none;top=0;left=0;bottom=0;right=0;align=left;spacingLeft=6;overflow=hidden;whiteSpace=wrap;html=1;" vertex="1" parent="bA_wD9CgmNWGQYaJStTC-154">
          <mxGeometry x="30" width="150" height="30" as="geometry">
            <mxRectangle width="150" height="30" as="alternateBounds" />
          </mxGeometry>
        </mxCell>
        <mxCell id="bA_wD9CgmNWGQYaJStTC-190" value="" style="curved=1;endArrow=classic;html=1;rounded=0;fontSize=12;startSize=8;endSize=8;exitX=1;exitY=0.5;exitDx=0;exitDy=0;entryX=1;entryY=0;entryDx=0;entryDy=0;" edge="1" parent="bA_wD9CgmNWGQYaJStTC-150" target="bA_wD9CgmNWGQYaJStTC-150">
          <mxGeometry width="50" height="50" relative="1" as="geometry">
            <mxPoint x="180" y="45" as="sourcePoint" />
            <mxPoint x="269" y="-5" as="targetPoint" />
            <Array as="points">
              <mxPoint x="269" y="45" />
              <mxPoint x="219" y="-5" />
            </Array>
          </mxGeometry>
        </mxCell>
        <mxCell id="bA_wD9CgmNWGQYaJStTC-167" value="" style="endArrow=classic;html=1;rounded=0;fontSize=12;startSize=8;endSize=8;curved=1;exitX=0.5;exitY=0;exitDx=0;exitDy=0;entryX=0;entryY=0.5;entryDx=0;entryDy=0;" edge="1" parent="1" source="bA_wD9CgmNWGQYaJStTC-170">
          <mxGeometry width="50" height="50" relative="1" as="geometry">
            <mxPoint x="-517.9999999999998" y="426.9999999999998" as="sourcePoint" />
            <mxPoint x="-228" y="634" as="targetPoint" />
          </mxGeometry>
        </mxCell>
        <mxCell id="bA_wD9CgmNWGQYaJStTC-170" value="a food can be a variant of another one (e.g. product -&amp;gt; dairy (category) -&amp;gt; milk (food) has 2 sub-foods (whole, skim)" style="rounded=1;whiteSpace=wrap;html=1;" vertex="1" parent="1">
          <mxGeometry x="-418" y="773" width="241" height="70" as="geometry" />
        </mxCell>
        <mxCell id="bA_wD9CgmNWGQYaJStTC-171" value="an abstract product (category)" style="rounded=1;whiteSpace=wrap;html=1;" vertex="1" parent="1">
          <mxGeometry x="-205" y="-251" width="120" height="60" as="geometry" />
        </mxCell>
        <mxCell id="bA_wD9CgmNWGQYaJStTC-173" value="Food" style="shape=table;startSize=30;container=1;collapsible=1;childLayout=tableLayout;fixedRows=1;rowLines=0;fontStyle=1;align=center;resizeLast=1;html=1;" vertex="1" parent="1">
          <mxGeometry x="-228" y="589" width="180" height="120" as="geometry" />
        </mxCell>
        <mxCell id="bA_wD9CgmNWGQYaJStTC-223" value="" style="shape=tableRow;horizontal=0;startSize=0;swimlaneHead=0;swimlaneBody=0;fillColor=none;collapsible=0;dropTarget=0;points=[[0,0.5],[1,0.5]];portConstraint=eastwest;top=0;left=0;right=0;bottom=0;" vertex="1" parent="bA_wD9CgmNWGQYaJStTC-173">
          <mxGeometry y="30" width="180" height="30" as="geometry" />
        </mxCell>
        <mxCell id="bA_wD9CgmNWGQYaJStTC-224" value="" style="shape=partialRectangle;connectable=0;fillColor=none;top=0;left=0;bottom=0;right=0;editable=1;overflow=hidden;" vertex="1" parent="bA_wD9CgmNWGQYaJStTC-223">
          <mxGeometry width="30" height="30" as="geometry">
            <mxRectangle width="30" height="30" as="alternateBounds" />
          </mxGeometry>
        </mxCell>
        <mxCell id="bA_wD9CgmNWGQYaJStTC-225" value="Parent" style="shape=partialRectangle;connectable=0;fillColor=none;top=0;left=0;bottom=0;right=0;align=left;spacingLeft=6;overflow=hidden;" vertex="1" parent="bA_wD9CgmNWGQYaJStTC-223">
          <mxGeometry x="30" width="150" height="30" as="geometry">
            <mxRectangle width="150" height="30" as="alternateBounds" />
          </mxGeometry>
        </mxCell>
        <mxCell id="bA_wD9CgmNWGQYaJStTC-191" value="" style="shape=tableRow;horizontal=0;startSize=0;swimlaneHead=0;swimlaneBody=0;fillColor=none;collapsible=0;dropTarget=0;points=[[0,0.5],[1,0.5]];portConstraint=eastwest;top=0;left=0;right=0;bottom=0;" vertex="1" parent="bA_wD9CgmNWGQYaJStTC-173">
          <mxGeometry y="60" width="180" height="30" as="geometry" />
        </mxCell>
        <mxCell id="bA_wD9CgmNWGQYaJStTC-192" value="" style="shape=partialRectangle;connectable=0;fillColor=none;top=0;left=0;bottom=0;right=0;editable=1;overflow=hidden;" vertex="1" parent="bA_wD9CgmNWGQYaJStTC-191">
          <mxGeometry width="30" height="30" as="geometry">
            <mxRectangle width="30" height="30" as="alternateBounds" />
          </mxGeometry>
        </mxCell>
        <mxCell id="bA_wD9CgmNWGQYaJStTC-193" value="brand" style="shape=partialRectangle;connectable=0;fillColor=none;top=0;left=0;bottom=0;right=0;align=left;spacingLeft=6;overflow=hidden;" vertex="1" parent="bA_wD9CgmNWGQYaJStTC-191">
          <mxGeometry x="30" width="150" height="30" as="geometry">
            <mxRectangle width="150" height="30" as="alternateBounds" />
          </mxGeometry>
        </mxCell>
        <mxCell id="bA_wD9CgmNWGQYaJStTC-177" value="" style="shape=tableRow;horizontal=0;startSize=0;swimlaneHead=0;swimlaneBody=0;fillColor=none;collapsible=0;dropTarget=0;points=[[0,0.5],[1,0.5]];portConstraint=eastwest;top=0;left=0;right=0;bottom=0;" vertex="1" parent="bA_wD9CgmNWGQYaJStTC-173">
          <mxGeometry y="90" width="180" height="30" as="geometry" />
        </mxCell>
        <mxCell id="bA_wD9CgmNWGQYaJStTC-178" value="" style="shape=partialRectangle;connectable=0;fillColor=none;top=0;left=0;bottom=0;right=0;editable=1;overflow=hidden;whiteSpace=wrap;html=1;" vertex="1" parent="bA_wD9CgmNWGQYaJStTC-177">
          <mxGeometry width="30" height="30" as="geometry">
            <mxRectangle width="30" height="30" as="alternateBounds" />
          </mxGeometry>
        </mxCell>
        <mxCell id="bA_wD9CgmNWGQYaJStTC-179" value="(prices)" style="shape=partialRectangle;connectable=0;fillColor=none;top=0;left=0;bottom=0;right=0;align=left;spacingLeft=6;overflow=hidden;whiteSpace=wrap;html=1;" vertex="1" parent="bA_wD9CgmNWGQYaJStTC-177">
          <mxGeometry x="30" width="150" height="30" as="geometry">
            <mxRectangle width="150" height="30" as="alternateBounds" />
          </mxGeometry>
        </mxCell>
        <mxCell id="bA_wD9CgmNWGQYaJStTC-188" value="" style="curved=1;endArrow=classic;html=1;rounded=0;fontSize=12;startSize=8;endSize=8;exitX=1;exitY=0.5;exitDx=0;exitDy=0;entryX=1.005;entryY=0.14;entryDx=0;entryDy=0;entryPerimeter=0;" edge="1" parent="bA_wD9CgmNWGQYaJStTC-173" target="bA_wD9CgmNWGQYaJStTC-173">
          <mxGeometry width="50" height="50" relative="1" as="geometry">
            <mxPoint x="180" y="45" as="sourcePoint" />
            <mxPoint x="270" y="-20" as="targetPoint" />
            <Array as="points">
              <mxPoint x="270" y="30" />
              <mxPoint x="220" y="-20" />
            </Array>
          </mxGeometry>
        </mxCell>
        <mxCell id="bA_wD9CgmNWGQYaJStTC-186" value="" style="shape=flexArrow;endArrow=classic;html=1;rounded=0;fontSize=12;startSize=8;endSize=8;curved=1;exitX=0.502;exitY=1.076;exitDx=0;exitDy=0;exitPerimeter=0;entryX=0.45;entryY=0.017;entryDx=0;entryDy=0;entryPerimeter=0;" edge="1" parent="1" source="bA_wD9CgmNWGQYaJStTC-101" target="bA_wD9CgmNWGQYaJStTC-150">
          <mxGeometry width="50" height="50" relative="1" as="geometry">
            <mxPoint x="-239" y="541" as="sourcePoint" />
            <mxPoint x="-189" y="491" as="targetPoint" />
          </mxGeometry>
        </mxCell>
        <mxCell id="bA_wD9CgmNWGQYaJStTC-187" value="" style="shape=flexArrow;endArrow=classic;html=1;rounded=0;fontSize=12;startSize=8;endSize=8;curved=1;entryX=0.5;entryY=0;entryDx=0;entryDy=0;exitX=0.598;exitY=1.219;exitDx=0;exitDy=0;exitPerimeter=0;" edge="1" parent="1" source="bA_wD9CgmNWGQYaJStTC-101" target="bA_wD9CgmNWGQYaJStTC-173">
          <mxGeometry width="50" height="50" relative="1" as="geometry">
            <mxPoint x="-284" y="469" as="sourcePoint" />
            <mxPoint x="-92" y="495" as="targetPoint" />
          </mxGeometry>
        </mxCell>
        <mxCell id="bA_wD9CgmNWGQYaJStTC-189" value="" style="endArrow=classic;html=1;rounded=0;fontSize=12;startSize=8;endSize=8;curved=1;exitX=0.5;exitY=0;exitDx=0;exitDy=0;entryX=1;entryY=0.5;entryDx=0;entryDy=0;" edge="1" parent="1" source="bA_wD9CgmNWGQYaJStTC-170">
          <mxGeometry width="50" height="50" relative="1" as="geometry">
            <mxPoint x="-392" y="851" as="sourcePoint" />
            <mxPoint x="-381" y="634" as="targetPoint" />
          </mxGeometry>
        </mxCell>
        <mxCell id="bA_wD9CgmNWGQYaJStTC-194" value="a food with a brand is a &quot;leaf&quot; (no onther can have it as parent)" style="rounded=1;whiteSpace=wrap;html=1;" vertex="1" parent="1">
          <mxGeometry x="70" y="649" width="120" height="60" as="geometry" />
        </mxCell>
        <mxCell id="bA_wD9CgmNWGQYaJStTC-195" value="" style="endArrow=classic;html=1;rounded=0;fontSize=12;startSize=8;endSize=8;curved=1;entryX=1;entryY=0.5;entryDx=0;entryDy=0;exitX=0;exitY=0.5;exitDx=0;exitDy=0;" edge="1" parent="1" source="bA_wD9CgmNWGQYaJStTC-194" target="bA_wD9CgmNWGQYaJStTC-191">
          <mxGeometry width="50" height="50" relative="1" as="geometry">
            <mxPoint x="56" y="812" as="sourcePoint" />
            <mxPoint x="106" y="762" as="targetPoint" />
          </mxGeometry>
        </mxCell>
        <mxCell id="bA_wD9CgmNWGQYaJStTC-196" value="foods which are not &quot;leaves&quot; still have nutrients values (e.g. avg on children, on default values, or a favourite variant sub-food)" style="rounded=1;whiteSpace=wrap;html=1;" vertex="1" parent="1">
          <mxGeometry x="-85" y="409" width="180" height="60" as="geometry" />
        </mxCell>
        <mxCell id="bA_wD9CgmNWGQYaJStTC-197" value="" style="endArrow=classic;html=1;rounded=0;fontSize=12;startSize=8;endSize=8;curved=1;exitX=0;exitY=0.25;exitDx=0;exitDy=0;entryX=1;entryY=0.5;entryDx=0;entryDy=0;" edge="1" parent="1" source="bA_wD9CgmNWGQYaJStTC-196" target="bA_wD9CgmNWGQYaJStTC-37">
          <mxGeometry width="50" height="50" relative="1" as="geometry">
            <mxPoint x="-515" y="457" as="sourcePoint" />
            <mxPoint x="-465" y="407" as="targetPoint" />
          </mxGeometry>
        </mxCell>
        <mxCell id="bA_wD9CgmNWGQYaJStTC-198" value="Ingredient" style="shape=table;startSize=30;container=1;collapsible=1;childLayout=tableLayout;fixedRows=1;rowLines=0;fontStyle=1;align=center;resizeLast=1;html=1;" vertex="1" parent="1">
          <mxGeometry x="-379" y="927" width="180" height="150" as="geometry" />
        </mxCell>
        <mxCell id="bA_wD9CgmNWGQYaJStTC-199" value="" style="shape=tableRow;horizontal=0;startSize=0;swimlaneHead=0;swimlaneBody=0;fillColor=none;collapsible=0;dropTarget=0;points=[[0,0.5],[1,0.5]];portConstraint=eastwest;top=0;left=0;right=0;bottom=1;" vertex="1" parent="bA_wD9CgmNWGQYaJStTC-198">
          <mxGeometry y="30" width="180" height="30" as="geometry" />
        </mxCell>
        <mxCell id="bA_wD9CgmNWGQYaJStTC-200" value="FK" style="shape=partialRectangle;connectable=0;fillColor=none;top=0;left=0;bottom=0;right=0;fontStyle=1;overflow=hidden;whiteSpace=wrap;html=1;" vertex="1" parent="bA_wD9CgmNWGQYaJStTC-199">
          <mxGeometry width="30" height="30" as="geometry">
            <mxRectangle width="30" height="30" as="alternateBounds" />
          </mxGeometry>
        </mxCell>
        <mxCell id="bA_wD9CgmNWGQYaJStTC-201" value="Recipe" style="shape=partialRectangle;connectable=0;fillColor=none;top=0;left=0;bottom=0;right=0;align=left;spacingLeft=6;fontStyle=5;overflow=hidden;whiteSpace=wrap;html=1;" vertex="1" parent="bA_wD9CgmNWGQYaJStTC-199">
          <mxGeometry x="30" width="150" height="30" as="geometry">
            <mxRectangle width="150" height="30" as="alternateBounds" />
          </mxGeometry>
        </mxCell>
        <mxCell id="bA_wD9CgmNWGQYaJStTC-211" value="" style="shape=tableRow;horizontal=0;startSize=0;swimlaneHead=0;swimlaneBody=0;fillColor=none;collapsible=0;dropTarget=0;points=[[0,0.5],[1,0.5]];portConstraint=eastwest;top=0;left=0;right=0;bottom=1;" vertex="1" parent="bA_wD9CgmNWGQYaJStTC-198">
          <mxGeometry y="60" width="180" height="30" as="geometry" />
        </mxCell>
        <mxCell id="bA_wD9CgmNWGQYaJStTC-212" value="FK" style="shape=partialRectangle;connectable=0;fillColor=none;top=0;left=0;bottom=0;right=0;fontStyle=1;overflow=hidden;whiteSpace=wrap;html=1;" vertex="1" parent="bA_wD9CgmNWGQYaJStTC-211">
          <mxGeometry width="30" height="30" as="geometry">
            <mxRectangle width="30" height="30" as="alternateBounds" />
          </mxGeometry>
        </mxCell>
        <mxCell id="bA_wD9CgmNWGQYaJStTC-213" value="Food" style="shape=partialRectangle;connectable=0;fillColor=none;top=0;left=0;bottom=0;right=0;align=left;spacingLeft=6;fontStyle=5;overflow=hidden;whiteSpace=wrap;html=1;" vertex="1" parent="bA_wD9CgmNWGQYaJStTC-211">
          <mxGeometry x="30" width="150" height="30" as="geometry">
            <mxRectangle width="150" height="30" as="alternateBounds" />
          </mxGeometry>
        </mxCell>
        <mxCell id="bA_wD9CgmNWGQYaJStTC-202" value="" style="shape=tableRow;horizontal=0;startSize=0;swimlaneHead=0;swimlaneBody=0;fillColor=none;collapsible=0;dropTarget=0;points=[[0,0.5],[1,0.5]];portConstraint=eastwest;top=0;left=0;right=0;bottom=0;" vertex="1" parent="bA_wD9CgmNWGQYaJStTC-198">
          <mxGeometry y="90" width="180" height="30" as="geometry" />
        </mxCell>
        <mxCell id="bA_wD9CgmNWGQYaJStTC-203" value="" style="shape=partialRectangle;connectable=0;fillColor=none;top=0;left=0;bottom=0;right=0;editable=1;overflow=hidden;whiteSpace=wrap;html=1;" vertex="1" parent="bA_wD9CgmNWGQYaJStTC-202">
          <mxGeometry width="30" height="30" as="geometry">
            <mxRectangle width="30" height="30" as="alternateBounds" />
          </mxGeometry>
        </mxCell>
        <mxCell id="bA_wD9CgmNWGQYaJStTC-204" value="optional (boolean" style="shape=partialRectangle;connectable=0;fillColor=none;top=0;left=0;bottom=0;right=0;align=left;spacingLeft=6;overflow=hidden;whiteSpace=wrap;html=1;" vertex="1" parent="bA_wD9CgmNWGQYaJStTC-202">
          <mxGeometry x="30" width="150" height="30" as="geometry">
            <mxRectangle width="150" height="30" as="alternateBounds" />
          </mxGeometry>
        </mxCell>
        <mxCell id="bA_wD9CgmNWGQYaJStTC-208" value="" style="shape=tableRow;horizontal=0;startSize=0;swimlaneHead=0;swimlaneBody=0;fillColor=none;collapsible=0;dropTarget=0;points=[[0,0.5],[1,0.5]];portConstraint=eastwest;top=0;left=0;right=0;bottom=0;" vertex="1" parent="bA_wD9CgmNWGQYaJStTC-198">
          <mxGeometry y="120" width="180" height="30" as="geometry" />
        </mxCell>
        <mxCell id="bA_wD9CgmNWGQYaJStTC-209" value="" style="shape=partialRectangle;connectable=0;fillColor=none;top=0;left=0;bottom=0;right=0;editable=1;overflow=hidden;whiteSpace=wrap;html=1;" vertex="1" parent="bA_wD9CgmNWGQYaJStTC-208">
          <mxGeometry width="30" height="30" as="geometry">
            <mxRectangle width="30" height="30" as="alternateBounds" />
          </mxGeometry>
        </mxCell>
        <mxCell id="bA_wD9CgmNWGQYaJStTC-210" value="quantity" style="shape=partialRectangle;connectable=0;fillColor=none;top=0;left=0;bottom=0;right=0;align=left;spacingLeft=6;overflow=hidden;whiteSpace=wrap;html=1;" vertex="1" parent="bA_wD9CgmNWGQYaJStTC-208">
          <mxGeometry x="30" width="150" height="30" as="geometry">
            <mxRectangle width="150" height="30" as="alternateBounds" />
          </mxGeometry>
        </mxCell>
        <mxCell id="bA_wD9CgmNWGQYaJStTC-226" value="" style="curved=1;endArrow=classic;html=1;rounded=0;fontSize=12;startSize=8;endSize=8;exitX=0;exitY=0.5;exitDx=0;exitDy=0;entryX=0.25;entryY=0;entryDx=0;entryDy=0;" edge="1" parent="1" source="bA_wD9CgmNWGQYaJStTC-199" target="bA_wD9CgmNWGQYaJStTC-150">
          <mxGeometry width="50" height="50" relative="1" as="geometry">
            <mxPoint x="-454" y="939" as="sourcePoint" />
            <mxPoint x="-404" y="889" as="targetPoint" />
            <Array as="points">
              <mxPoint x="-404" y="939" />
              <mxPoint x="-733" y="819" />
              <mxPoint x="-880" y="394" />
            </Array>
          </mxGeometry>
        </mxCell>
        <mxCell id="bA_wD9CgmNWGQYaJStTC-227" value="" style="curved=1;endArrow=classic;html=1;rounded=0;fontSize=12;startSize=8;endSize=8;exitX=1;exitY=0.5;exitDx=0;exitDy=0;entryX=0.75;entryY=0;entryDx=0;entryDy=0;" edge="1" parent="1" source="bA_wD9CgmNWGQYaJStTC-211" target="bA_wD9CgmNWGQYaJStTC-173">
          <mxGeometry width="50" height="50" relative="1" as="geometry">
            <mxPoint x="-108" y="921" as="sourcePoint" />
            <mxPoint x="-11.571428571428571" y="567" as="targetPoint" />
            <Array as="points">
              <mxPoint x="-58" y="921" />
              <mxPoint x="466" y="673" />
              <mxPoint x="251" y="502" />
              <mxPoint x="80" y="517" />
              <mxPoint x="-36" y="549" />
            </Array>
          </mxGeometry>
        </mxCell>
        <mxCell id="bA_wD9CgmNWGQYaJStTC-228" value="nutrients refer to 100g of eatable product (e.g. don&#39;t consider bones)" style="rounded=1;whiteSpace=wrap;html=1;" vertex="1" parent="1">
          <mxGeometry x="-633" y="409" width="120" height="60" as="geometry" />
        </mxCell>
        <mxCell id="bA_wD9CgmNWGQYaJStTC-229" value="" style="endArrow=classic;html=1;rounded=0;fontSize=12;startSize=8;endSize=8;curved=1;exitX=1;exitY=0.5;exitDx=0;exitDy=0;entryX=0.01;entryY=0.091;entryDx=0;entryDy=0;entryPerimeter=0;" edge="1" parent="1" source="bA_wD9CgmNWGQYaJStTC-228" target="bA_wD9CgmNWGQYaJStTC-33">
          <mxGeometry width="50" height="50" relative="1" as="geometry">
            <mxPoint x="-479" y="401" as="sourcePoint" />
            <mxPoint x="-429" y="351" as="targetPoint" />
          </mxGeometry>
        </mxCell>
        <mxCell id="bA_wD9CgmNWGQYaJStTC-230" value="servings (e.g. even pack for non-food)" style="ellipse;whiteSpace=wrap;html=1;aspect=fixed;" vertex="1" parent="1">
          <mxGeometry x="180" y="25" width="80" height="80" as="geometry" />
        </mxCell>
        <mxCell id="bA_wD9CgmNWGQYaJStTC-231" value="Plan" style="shape=table;startSize=30;container=1;collapsible=1;childLayout=tableLayout;fixedRows=1;rowLines=0;fontStyle=1;align=center;resizeLast=1;html=1;" vertex="1" parent="1">
          <mxGeometry x="293" y="238" width="180" height="150" as="geometry" />
        </mxCell>
        <mxCell id="bA_wD9CgmNWGQYaJStTC-232" value="" style="shape=tableRow;horizontal=0;startSize=0;swimlaneHead=0;swimlaneBody=0;fillColor=none;collapsible=0;dropTarget=0;points=[[0,0.5],[1,0.5]];portConstraint=eastwest;top=0;left=0;right=0;bottom=1;" vertex="1" parent="bA_wD9CgmNWGQYaJStTC-231">
          <mxGeometry y="30" width="180" height="30" as="geometry" />
        </mxCell>
        <mxCell id="bA_wD9CgmNWGQYaJStTC-233" value="FK" style="shape=partialRectangle;connectable=0;fillColor=none;top=0;left=0;bottom=0;right=0;fontStyle=1;overflow=hidden;whiteSpace=wrap;html=1;" vertex="1" parent="bA_wD9CgmNWGQYaJStTC-232">
          <mxGeometry width="30" height="30" as="geometry">
            <mxRectangle width="30" height="30" as="alternateBounds" />
          </mxGeometry>
        </mxCell>
        <mxCell id="bA_wD9CgmNWGQYaJStTC-234" value="Eatable" style="shape=partialRectangle;connectable=0;fillColor=none;top=0;left=0;bottom=0;right=0;align=left;spacingLeft=6;fontStyle=5;overflow=hidden;whiteSpace=wrap;html=1;" vertex="1" parent="bA_wD9CgmNWGQYaJStTC-232">
          <mxGeometry x="30" width="150" height="30" as="geometry">
            <mxRectangle width="150" height="30" as="alternateBounds" />
          </mxGeometry>
        </mxCell>
        <mxCell id="bA_wD9CgmNWGQYaJStTC-244" value="" style="shape=tableRow;horizontal=0;startSize=0;swimlaneHead=0;swimlaneBody=0;fillColor=none;collapsible=0;dropTarget=0;points=[[0,0.5],[1,0.5]];portConstraint=eastwest;top=0;left=0;right=0;bottom=1;" vertex="1" parent="bA_wD9CgmNWGQYaJStTC-231">
          <mxGeometry y="60" width="180" height="30" as="geometry" />
        </mxCell>
        <mxCell id="bA_wD9CgmNWGQYaJStTC-245" value="PK" style="shape=partialRectangle;connectable=0;fillColor=none;top=0;left=0;bottom=0;right=0;fontStyle=1;overflow=hidden;whiteSpace=wrap;html=1;" vertex="1" parent="bA_wD9CgmNWGQYaJStTC-244">
          <mxGeometry width="30" height="30" as="geometry">
            <mxRectangle width="30" height="30" as="alternateBounds" />
          </mxGeometry>
        </mxCell>
        <mxCell id="bA_wD9CgmNWGQYaJStTC-246" value="Date" style="shape=partialRectangle;connectable=0;fillColor=none;top=0;left=0;bottom=0;right=0;align=left;spacingLeft=6;fontStyle=5;overflow=hidden;whiteSpace=wrap;html=1;" vertex="1" parent="bA_wD9CgmNWGQYaJStTC-244">
          <mxGeometry x="30" width="150" height="30" as="geometry">
            <mxRectangle width="150" height="30" as="alternateBounds" />
          </mxGeometry>
        </mxCell>
        <mxCell id="bA_wD9CgmNWGQYaJStTC-247" value="" style="shape=tableRow;horizontal=0;startSize=0;swimlaneHead=0;swimlaneBody=0;fillColor=none;collapsible=0;dropTarget=0;points=[[0,0.5],[1,0.5]];portConstraint=eastwest;top=0;left=0;right=0;bottom=1;" vertex="1" parent="bA_wD9CgmNWGQYaJStTC-231">
          <mxGeometry y="90" width="180" height="30" as="geometry" />
        </mxCell>
        <mxCell id="bA_wD9CgmNWGQYaJStTC-248" value="PK" style="shape=partialRectangle;connectable=0;fillColor=none;top=0;left=0;bottom=0;right=0;fontStyle=1;overflow=hidden;whiteSpace=wrap;html=1;" vertex="1" parent="bA_wD9CgmNWGQYaJStTC-247">
          <mxGeometry width="30" height="30" as="geometry">
            <mxRectangle width="30" height="30" as="alternateBounds" />
          </mxGeometry>
        </mxCell>
        <mxCell id="bA_wD9CgmNWGQYaJStTC-249" value="Hour" style="shape=partialRectangle;connectable=0;fillColor=none;top=0;left=0;bottom=0;right=0;align=left;spacingLeft=6;fontStyle=5;overflow=hidden;whiteSpace=wrap;html=1;" vertex="1" parent="bA_wD9CgmNWGQYaJStTC-247">
          <mxGeometry x="30" width="150" height="30" as="geometry">
            <mxRectangle width="150" height="30" as="alternateBounds" />
          </mxGeometry>
        </mxCell>
        <mxCell id="bA_wD9CgmNWGQYaJStTC-235" value="" style="shape=tableRow;horizontal=0;startSize=0;swimlaneHead=0;swimlaneBody=0;fillColor=none;collapsible=0;dropTarget=0;points=[[0,0.5],[1,0.5]];portConstraint=eastwest;top=0;left=0;right=0;bottom=0;" vertex="1" parent="bA_wD9CgmNWGQYaJStTC-231">
          <mxGeometry y="120" width="180" height="30" as="geometry" />
        </mxCell>
        <mxCell id="bA_wD9CgmNWGQYaJStTC-236" value="" style="shape=partialRectangle;connectable=0;fillColor=none;top=0;left=0;bottom=0;right=0;editable=1;overflow=hidden;whiteSpace=wrap;html=1;" vertex="1" parent="bA_wD9CgmNWGQYaJStTC-235">
          <mxGeometry width="30" height="30" as="geometry">
            <mxRectangle width="30" height="30" as="alternateBounds" />
          </mxGeometry>
        </mxCell>
        <mxCell id="bA_wD9CgmNWGQYaJStTC-237" value="quantity" style="shape=partialRectangle;connectable=0;fillColor=none;top=0;left=0;bottom=0;right=0;align=left;spacingLeft=6;overflow=hidden;whiteSpace=wrap;html=1;" vertex="1" parent="bA_wD9CgmNWGQYaJStTC-235">
          <mxGeometry x="30" width="150" height="30" as="geometry">
            <mxRectangle width="150" height="30" as="alternateBounds" />
          </mxGeometry>
        </mxCell>
        <mxCell id="bA_wD9CgmNWGQYaJStTC-250" value="" style="endArrow=classic;html=1;rounded=0;fontSize=12;startSize=8;endSize=8;curved=1;entryX=1.002;entryY=0.091;entryDx=0;entryDy=0;entryPerimeter=0;exitX=0;exitY=0.5;exitDx=0;exitDy=0;" edge="1" parent="1" source="bA_wD9CgmNWGQYaJStTC-232" target="bA_wD9CgmNWGQYaJStTC-33">
          <mxGeometry width="50" height="50" relative="1" as="geometry">
            <mxPoint x="88" y="328" as="sourcePoint" />
            <mxPoint x="138" y="278" as="targetPoint" />
          </mxGeometry>
        </mxCell>
        <mxCell id="bA_wD9CgmNWGQYaJStTC-252" value="sub-categories" style="rounded=1;whiteSpace=wrap;html=1;" vertex="1" parent="1">
          <mxGeometry x="98" y="-179" width="120" height="60" as="geometry" />
        </mxCell>
        <mxCell id="bA_wD9CgmNWGQYaJStTC-253" value="" style="endArrow=classic;html=1;rounded=0;fontSize=12;startSize=8;endSize=8;curved=1;exitX=0;exitY=0.5;exitDx=0;exitDy=0;" edge="1" parent="1" source="bA_wD9CgmNWGQYaJStTC-252">
          <mxGeometry width="50" height="50" relative="1" as="geometry">
            <mxPoint x="46" y="-145" as="sourcePoint" />
            <mxPoint x="25" y="-116" as="targetPoint" />
          </mxGeometry>
        </mxCell>
      </root>
    </mxGraphModel>
  </diagram>
</mxfile>
